<?xml version="1.0" encoding="iso-8859-1"?>
<!-- Generator: Adobe Illustrator 16.0.0, SVG Export Plug-In . SVG Version: 6.00 Build 0)  -->
<!DOCTYPE svg PUBLIC "-//W3C//DTD SVG 1.1//EN" "http://www.w3.org/Graphics/SVG/1.1/DTD/svg11.dtd">
<svg version="1.1" id="Capa_1" xmlns="http://www.w3.org/2000/svg" xmlns:xlink="http://www.w3.org/1999/xlink" x="0px" y="0px"
	 width="459px" height="459px" viewBox="0 0 459 459" style="enable-background:new 0 0 459 459;" xml:space="preserve">
<g>
	<g>
		<circle cx="124.312" cy="262.013" r="47.812"/>
		<path d="M95.625,323.213v93.712l28.688-28.688L153,416.925v-93.712c-9.562,3.825-19.125,5.737-28.688,5.737
			S105.188,327.038,95.625,323.213z"/>
		<path d="M420.75,42.075H38.25C17.212,42.075,0,59.288,0,80.325V328.95c0,21.037,17.212,38.25,38.25,38.25H76.5v-59.287
			c-11.475-11.476-19.125-28.688-19.125-45.9c0-36.337,30.6-66.938,66.938-66.938s66.938,30.6,66.938,66.938
			c0,19.125-7.65,34.425-19.125,45.9V367.2H420.75c21.037,0,38.25-17.213,38.25-38.25V80.325
			C459,59.288,441.787,42.075,420.75,42.075z M401.625,271.575h-114.75V252.45h114.75V271.575z M401.625,214.2H229.5v-19.125
			h172.125V214.2z M401.625,156.825H57.375V137.7h344.25V156.825z"/>
	</g>
</g>
<g>
</g>
<g>
</g>
<g>
</g>
<g>
</g>
<g>
</g>
<g>
</g>
<g>
</g>
<g>
</g>
<g>
</g>
<g>
</g>
<g>
</g>
<g>
</g>
<g>
</g>
<g>
</g>
<g>
</g>
</svg>
